<svg id="Livello_1" data-name="Livello 1" xmlns="http://www.w3.org/2000/svg" xmlns:xlink="http://www.w3.org/1999/xlink" viewBox="0 0 342 342"><defs><style>.cls-1{fill:#fff;}.cls-2{fill:url(#Sfumatura_senza_nome_367);}.cls-3{fill:url(#Sfumatura_senza_nome_25);}.cls-4{fill:url(#Sfumatura_senza_nome_145);}.cls-5{fill:url(#Sfumatura_senza_nome_155);}.cls-6{fill:url(#Sfumatura_senza_nome_145-2);}.cls-7{fill:url(#Sfumatura_senza_nome_155-2);}</style><linearGradient id="Sfumatura_senza_nome_367" x1="137.94" y1="153.36" x2="120.31" y2="159.97" gradientUnits="userSpaceOnUse"><stop offset="0" stop-color="#fff" stop-opacity="0"/><stop offset="0.39" stop-color="#cecece" stop-opacity="0.11"/><stop offset="1" stop-color="#4d4d4d" stop-opacity="0.4"/></linearGradient><linearGradient id="Sfumatura_senza_nome_25" x1="241.17" y1="146.71" x2="215.53" y2="152.7" gradientUnits="userSpaceOnUse"><stop offset="0" stop-color="#fff" stop-opacity="0"/><stop offset="0.35" stop-color="#e3e3e3" stop-opacity="0.06"/><stop offset="0.76" stop-color="#929292" stop-opacity="0.25"/><stop offset="1" stop-color="#4d4d4d" stop-opacity="0.4"/></linearGradient><linearGradient id="Sfumatura_senza_nome_145" x1="173.35" y1="162.09" x2="181.71" y2="152.47" gradientUnits="userSpaceOnUse"><stop offset="0" stop-color="#fff" stop-opacity="0"/><stop offset="0.37" stop-color="#e9e9e9" stop-opacity="0.05"/><stop offset="0.71" stop-color="#a7a7a7" stop-opacity="0.2"/><stop offset="1" stop-color="#4d4d4d" stop-opacity="0.4"/></linearGradient><linearGradient id="Sfumatura_senza_nome_155" x1="194.43" y1="117" x2="181.75" y2="125.63" gradientUnits="userSpaceOnUse"><stop offset="0" stop-color="#fff" stop-opacity="0"/><stop offset="0.5" stop-color="#b2b2b2" stop-opacity="0.17"/><stop offset="1" stop-color="#4d4d4d" stop-opacity="0.4"/></linearGradient><linearGradient id="Sfumatura_senza_nome_145-2" x1="98.85" y1="194.87" x2="117" y2="182.64" xlink:href="#Sfumatura_senza_nome_145"/><linearGradient id="Sfumatura_senza_nome_155-2" x1="181.41" y1="145.58" x2="210.9" y2="153.77" xlink:href="#Sfumatura_senza_nome_155"/></defs><path class="cls-1" d="M279.54,149.31c-6.69-2.3-13.64,1.27-16.28,8-.32.81-.62,1.46-1.45,3.29a50.68,50.68,0,0,1-7.1,11.68,39.94,39.94,0,0,1-9.82,9.07,21.3,21.3,0,0,1-11.6,3.37,10.7,10.7,0,0,1-8.93-4c-2.58-3.12-4-8-4.23-14.37l0-1.2a79.91,79.91,0,0,0,14-2.83,64.82,64.82,0,0,0,18.22-8.52,50,50,0,0,0,10.26-9.23A28.25,28.25,0,0,0,266,140h0a4.66,4.66,0,0,0,.35-.6,28.75,28.75,0,0,0-42.13-37.25L222,103.8a60.58,60.58,0,0,0-15.36,17.65A84,84,0,0,0,199.16,138c-1.11-.41-3.56-1.42-4.13-1.75l-.23-.14a124.8,124.8,0,0,0,1.27-15.54,66.38,66.38,0,0,0-1-10.56c0-.07,0-.13,0-.19a17.61,17.61,0,0,0-17.28-14.24,16.44,16.44,0,0,0-11.46,4.51,19.44,19.44,0,0,0-6.12,12c-1.49,12,.38,20.21,7.46,31.74-2.91,15.05-11.77,29-15.85,33.65C142,188.65,133,179.08,133,179.08s8.64-16.47,10.94-23.86c2.69-8.69,3.69-16.22,3.49-21.92A28.14,28.14,0,0,0,143,118.88c-2.32-3.57-7-7.76-16.15-7.44a21.2,21.2,0,0,0-14.15,5.64,31.22,31.22,0,0,0-7.78,11.51,53.94,53.94,0,0,0-3.29,13.15,77.6,77.6,0,0,0-.64,12,101,101,0,0,0,1,10.92,65.59,65.59,0,0,0,2.44,10.15,41.71,41.71,0,0,1-4.71,4.78c-.87.71-5.93,4.16-10.43,3.09-7.79-1.84-11.39-13.07-8.71-35.36.6-5,1.24-9.67,2-14.12s1.25-6.58,2.15-10.58c.64-2.88,2.39-10.16,2.39-10.17A13.61,13.61,0,0,0,76.86,96.35c-7.21-1.57-14.46,3.53-16,10.73,0,0-1.63,5.69-2.52,10.13-.94,4.6-1.47,6.93-2.21,12-.77,5.2-1.4,10.67-1.86,16.24a143.89,143.89,0,0,0-.43,16.87,113.88,113.88,0,0,0,1.54,14.61,55.82,55.82,0,0,0,4.93,15.53,34,34,0,0,0,10.6,12.68c4.49,3.28,11.77,4.93,18.22,4.93l1.36,0a35,35,0,0,0,17.64-5.53c1-.65,2.06-1.25,3.07-1.85a66.58,66.58,0,0,0,6.4-4.11,42.89,42.89,0,0,0,8.64,6.9,32.44,32.44,0,0,0,18.25,4.44c9.43-.33,17.63-4.31,24.35-11.81a94,94,0,0,0,15.35-23.77,126.38,126.38,0,0,0,5.14-13.17,55.34,55.34,0,0,0,5.48,1.71c0,1.49-.05,3,0,4.42a68.55,68.55,0,0,0,2.29,15.05,41,41,0,0,0,6.76,14.12,34.3,34.3,0,0,0,12.33,10.08A36.23,36.23,0,0,0,232.46,210l1.76,0a46.58,46.58,0,0,0,23.45-6.79,66.27,66.27,0,0,0,16.6-14.62,80.64,80.64,0,0,0,10.39-16.92c2.43-5.08,2-4.13,2.66-5.61C290.23,159.55,286.24,151.61,279.54,149.31Zm-52.74-12a52.09,52.09,0,0,1,5.58-8.51,32.81,32.81,0,0,1,7.12-6.6l0,0,.07,0a.52.52,0,0,1,.13-.06,4.15,4.15,0,0,1,4.75.3,3.8,3.8,0,0,1,.61.85,2.15,2.15,0,0,1,.14.26,1.8,1.8,0,0,1,.08.21,2.41,2.41,0,0,1,.08.25,4.42,4.42,0,0,1-1,3.53,1.25,1.25,0,0,1-.18.24l-.1.11s0,0,0,0l0,0a27.63,27.63,0,0,1-7.09,5.51,48.74,48.74,0,0,1-10.22,4.41l-.29.08C226.61,137.67,226.71,137.48,226.8,137.29Z"/><path class="cls-1" d="M83.19,236.47h0a15.3,15.3,0,0,0-3.21-.89l-1-.17c-.86-.16-1.53-.31-2-.44a2.54,2.54,0,0,1-1-.58,1.39,1.39,0,0,1-.38-1.06c0-1.29,1.07-1.91,3.27-1.91a45.24,45.24,0,0,1,5.86.54l.24,0,.08-3.09-1.18-.25a32.72,32.72,0,0,0-5.17-.51c-4.45,0-6.71,1.86-6.71,5.52a4.68,4.68,0,0,0,.65,2.65,4,4,0,0,0,1.86,1.48,13.37,13.37,0,0,0,3.14.8l.83.14a17.09,17.09,0,0,1,2,.42,2.66,2.66,0,0,1,1.09.63A1.63,1.63,0,0,1,82,241a1.71,1.71,0,0,1-.82,1.6,5.33,5.33,0,0,1-2.63.52,50,50,0,0,1-5.89-.58l-.23,0-.16,3.16,1.21.2a31.81,31.81,0,0,0,5.21.55,8.31,8.31,0,0,0,5.2-1.36,5.26,5.26,0,0,0,1.72-4.33A5.39,5.39,0,0,0,85,238,3.78,3.78,0,0,0,83.19,236.47Z"/><path class="cls-1" d="M105.5,243.14a1.78,1.78,0,0,1-1.28-.37,1.86,1.86,0,0,1-.5-1.11,17.2,17.2,0,0,1-.12-2.38v-7.62h5v-3.17h-5v-5.1H100v5.1h-2.3v3.17H100v8.2a13.17,13.17,0,0,0,.45,3.87A3.54,3.54,0,0,0,102,245.8a5.9,5.9,0,0,0,2.94.61,24.35,24.35,0,0,0,3.73-.41l.19,0-.24-3Z"/><path class="cls-1" d="M132.1,242.12a15.07,15.07,0,0,1-2,.72,7.8,7.8,0,0,1-2.08.27,3.32,3.32,0,0,1-1.91-.44,2.4,2.4,0,0,1-.83-1.53,19.91,19.91,0,0,1-.23-3.5v-9.15h-3.61v9.15a21.32,21.32,0,0,0,.48,5.1,4.71,4.71,0,0,0,1.76,2.79,6.13,6.13,0,0,0,3.55.88,9.14,9.14,0,0,0,2.58-.35,12,12,0,0,0,2.31-1v1h3.61V228.49H132.1Z"/><path class="cls-1" d="M160.68,228.54a19.14,19.14,0,0,0-3.79-.43c-2.57,0-4.47.76-5.64,2.26s-1.76,3.89-1.76,7.17c0,3,.49,5.18,1.47,6.64a5.55,5.55,0,0,0,4.94,2.23,10.69,10.69,0,0,0,4.78-1.27V246h3.61v-24.8h-3.61Zm0,13.61-.48.19a12.15,12.15,0,0,1-1.82.53c-2.28.52-3.69.19-4.4-1.09a9.43,9.43,0,0,1-.78-4.41,9,9,0,0,1,.92-4.71,3.54,3.54,0,0,1,3.15-1.35,18.9,18.9,0,0,1,3.41.38Z"/><path class="cls-1" d="M185.44,228.11c-2.57,0-4.5.81-5.73,2.4s-1.84,4-1.84,7.2c0,3,.58,5.2,1.72,6.59s3.1,2.11,5.78,2.11a40.29,40.29,0,0,0,6.51-.69l.18,0-.08-2.88-1.19.13c-.7.07-1.5.12-2.38.15s-1.69,0-2.39,0a7,7,0,0,1-2.72-.42,2.58,2.58,0,0,1-1.33-1.35,7.13,7.13,0,0,1-.45-2.56h10.89l.23-2.54C192.64,230.86,190.22,228.11,185.44,228.11Zm-4,7.77a5.87,5.87,0,0,1,1-3.53,3.62,3.62,0,0,1,3-1.14,3.25,3.25,0,0,1,2.76,1.08,6.37,6.37,0,0,1,.83,3.59Z"/><path class="cls-1" d="M218.36,229a6.06,6.06,0,0,0-3.51-.9,9.6,9.6,0,0,0-2.6.35,13,13,0,0,0-2.39,1v-1h-3.58V246h3.61V232.4l.45-.21a10.15,10.15,0,0,1,3.72-.77,3.18,3.18,0,0,1,1.91.48,2.67,2.67,0,0,1,.88,1.59,17.13,17.13,0,0,1,.25,3.29V246h3.61v-9.32a19,19,0,0,0-.52-4.93A4.9,4.9,0,0,0,218.36,229Z"/><path class="cls-1" d="M241.37,243.14a1.78,1.78,0,0,1-1.28-.37,1.86,1.86,0,0,1-.5-1.11,17.2,17.2,0,0,1-.12-2.38v-7.62h5v-3.17h-5v-5.1h-3.61v5.1h-2.3v3.17h2.3v8.2a13.17,13.17,0,0,0,.45,3.87,3.54,3.54,0,0,0,1.55,2.07,5.89,5.89,0,0,0,2.93.61,24.33,24.33,0,0,0,3.74-.41l.19,0-.24-3Z"/><path class="cls-1" d="M267.73,236.47a15,15,0,0,0-3.21-.89l-1-.17c-.85-.16-1.52-.31-2-.44a2.58,2.58,0,0,1-1.06-.58,1.43,1.43,0,0,1-.38-1.06c0-1.29,1.08-1.91,3.28-1.91a45.24,45.24,0,0,1,5.86.54l.24,0,.08-3.09-1.18-.25a32.72,32.72,0,0,0-5.17-.51c-4.46,0-6.72,1.86-6.72,5.52a4.77,4.77,0,0,0,.65,2.65A4.06,4.06,0,0,0,259,237.8a13.61,13.61,0,0,0,3.15.8l.82.14a16.9,16.9,0,0,1,2,.42,2.66,2.66,0,0,1,1.09.63,1.67,1.67,0,0,1,.4,1.2,1.71,1.71,0,0,1-.82,1.6,5.33,5.33,0,0,1-2.63.52,50,50,0,0,1-5.89-.58l-.23,0-.16,3.16,1.21.2a31.81,31.81,0,0,0,5.21.55,8.31,8.31,0,0,0,5.2-1.36,5.26,5.26,0,0,0,1.72-4.33,5.39,5.39,0,0,0-.59-2.71A3.76,3.76,0,0,0,267.73,236.47Z"/><path class="cls-2" d="M133,179.08s-9-8.26-8-35.54c.1-2.75,1-8,.94-9.53,4.44,7.47,13,.49,15.44,27.78-.78,1.8-1.94,4.58-3.22,7.28C135.34,174.94,133,179.08,133,179.08Z"/><path class="cls-3" d="M226.51,137.85a53.41,53.41,0,0,0-4.73,12.7,57.31,57.31,0,0,0-1.69,14.6c1.2-.12,2.43-.27,3.68-.46a75.18,75.18,0,0,0,18.62-5.38c.81-1.29.73-7.62-.34-14.22-1.31-8-4.52-10.8-5.53-11.45a48.44,48.44,0,0,1-4.81,2.36A54.69,54.69,0,0,1,226.51,137.85Z"/><path class="cls-4" d="M169.2,146a26.18,26.18,0,0,1-1.56-2.22,74.4,74.4,0,0,1-2.45,9.07c4.74,9.45,11.07,14.56,18.73,21.87.07-.16.15-.32.23-.49a124.19,124.19,0,0,0,5.14-13.17A43.5,43.5,0,0,1,169.2,146Z"/><path class="cls-5" d="M196.08,120.58a67.57,67.57,0,0,0-1-10.56l-.05-.19a17.6,17.6,0,0,0-5-9.23c-2,1.87-3.81,8.34-3.92,9.32a62.09,62.09,0,0,0-.49,10.81c.1.88.3,2.2.52,3.16a22.66,22.66,0,0,0,4,8.27,15.48,15.48,0,0,0,1.93,2c.59.55,2.77,2,2.68,1.92A126.75,126.75,0,0,0,196.08,120.58Z"/><path class="cls-6" d="M104.39,174.83a52.36,52.36,0,0,0,5.27,12.63,60.7,60.7,0,0,0,7.9,11c-.71.52-1.83,1.32-3.2,2.2-1,.62-2.36,1.42-3.22,1.93-1.16.68-2.07,1.23-4.14,2.5a18.33,18.33,0,0,1-9.31-7.72A20.88,20.88,0,0,1,94.82,186a13.12,13.12,0,0,1,.72-4.07,20.17,20.17,0,0,0,4.14-2.33A43.74,43.74,0,0,0,104.39,174.83Z"/><path class="cls-7" d="M199.16,138a84.18,84.18,0,0,0-3,11.64,85.34,85.34,0,0,0-1.38,13.16,48.49,48.49,0,0,1-6.9-2.27,45.7,45.7,0,0,1-4.16-2c-14.15-8.19-1.34-29.5,11.11-22.46A42.38,42.38,0,0,0,199.16,138Z"/></svg>