<svg width="1395" height="286" viewBox="0 0 1395 286" fill="none" xmlns="http://www.w3.org/2000/svg">
<path d="M36.8938 280L0.09375 -1.90735e-05H52.4938L79.6938 243.2H86.8938L122.094 -1.90735e-05H213.294L248.494 243.2H255.694L282.894 -1.90735e-05H335.294L298.494 280H207.294L171.294 31.2H164.094L128.094 280H36.8938Z" fill="#302D28"/>
<path d="M463.725 285.6C443.992 285.6 426.525 281.467 411.325 273.2C396.392 264.667 384.658 252.8 376.125 237.6C367.858 222.133 363.725 204 363.725 183.2V178.4C363.725 157.6 367.858 139.6 376.125 124.4C384.392 108.933 395.992 97.0667 410.925 88.8C425.858 80.2667 443.192 76 462.925 76C482.392 76 499.325 80.4 513.725 89.2C528.125 97.7333 539.325 109.733 547.325 125.2C555.325 140.4 559.325 158.133 559.325 178.4V195.6H414.925C415.458 209.2 420.525 220.267 430.125 228.8C439.725 237.333 451.458 241.6 465.325 241.6C479.458 241.6 489.858 238.533 496.525 232.4C503.192 226.267 508.258 219.467 511.725 212L552.925 233.6C549.192 240.533 543.725 248.133 536.525 256.4C529.592 264.4 520.258 271.333 508.525 277.2C496.792 282.8 481.858 285.6 463.725 285.6ZM415.325 158H508.125C507.058 146.533 502.392 137.333 494.125 130.4C486.125 123.467 475.592 120 462.525 120C448.925 120 438.125 123.467 430.125 130.4C422.125 137.333 417.192 146.533 415.325 158Z" fill="#302D28"/>
<path d="M597.184 280V220L705.984 129.6V123.2H601.184V81.6H761.184V141.6L652.384 232V238.4H764.384V280H597.184Z" fill="#302D28"/>
<path d="M873.216 285.6C859.082 285.6 846.416 283.2 835.216 278.4C824.016 273.333 815.082 266.133 808.416 256.8C802.016 247.2 798.816 235.6 798.816 222C798.816 208.4 802.016 197.067 808.416 188C815.082 178.667 824.149 171.733 835.616 167.2C847.349 162.4 860.682 160 875.616 160H930.016V148.8C930.016 139.467 927.082 131.867 921.216 126C915.349 119.867 906.016 116.8 893.216 116.8C880.682 116.8 871.349 119.733 865.216 125.6C859.082 131.2 855.082 138.533 853.216 147.6L806.816 132C810.016 121.867 815.082 112.667 822.016 104.4C829.216 95.8667 838.682 89.0667 850.416 84C862.416 78.6667 876.949 76 894.016 76C920.149 76 940.816 82.5333 956.016 95.6C971.216 108.667 978.816 127.6 978.816 152.4V226.4C978.816 234.4 982.549 238.4 990.016 238.4H1006.02V280H972.416C962.549 280 954.416 277.6 948.016 272.8C941.616 268 938.416 261.6 938.416 253.6V253.2H930.816C929.749 256.4 927.349 260.667 923.616 266C919.882 271.067 914.016 275.6 906.016 279.6C898.016 283.6 887.082 285.6 873.216 285.6ZM882.016 244.8C896.149 244.8 907.616 240.933 916.416 233.2C925.482 225.2 930.016 214.667 930.016 201.6V197.6H879.216C869.882 197.6 862.549 199.6 857.216 203.6C851.882 207.6 849.216 213.2 849.216 220.4C849.216 227.6 852.016 233.467 857.616 238C863.216 242.533 871.349 244.8 882.016 244.8Z" fill="#302D28"/>
<path d="M1043.07 280V81.6H1092.67V104H1099.87C1102.8 96 1107.6 90.1333 1114.27 86.4C1121.2 82.6667 1129.2 80.8 1138.27 80.8H1162.27V125.6H1137.47C1124.67 125.6 1114.13 129.067 1105.87 136C1097.6 142.667 1093.47 153.067 1093.47 167.2V280H1043.07Z" fill="#302D28"/>
<path d="M1274.83 285.6C1259.09 285.6 1244.29 281.733 1230.43 274C1216.83 266 1205.89 254.4 1197.63 239.2C1189.36 224 1185.23 205.6 1185.23 184V177.6C1185.23 156 1189.36 137.6 1197.63 122.4C1205.89 107.2 1216.83 95.7333 1230.43 88C1244.03 80 1258.83 76 1274.83 76C1286.83 76 1296.83 77.4667 1304.83 80.4C1313.09 83.0667 1319.76 86.5333 1324.83 90.8C1329.89 95.0667 1333.76 99.6 1336.43 104.4H1343.63V-1.90735e-05H1394.03V280H1344.43V256H1337.23C1332.69 263.467 1325.63 270.267 1316.03 276.4C1306.69 282.533 1292.96 285.6 1274.83 285.6ZM1290.03 241.6C1305.49 241.6 1318.43 236.667 1328.83 226.8C1339.23 216.667 1344.43 202 1344.43 182.8V178.8C1344.43 159.6 1339.23 145.067 1328.83 135.2C1318.69 125.067 1305.76 120 1290.03 120C1274.56 120 1261.63 125.067 1251.23 135.2C1240.83 145.067 1235.63 159.6 1235.63 178.8V182.8C1235.63 202 1240.83 216.667 1251.23 226.8C1261.63 236.667 1274.56 241.6 1290.03 241.6Z" fill="#302D28"/>
</svg>
